<svg height="512pt" viewBox="-71 0 512 512" width="512pt" xmlns="http://www.w3.org/2000/svg"><path d="m267.171875 0h-163.664063c-57.074218 0-103.507812 46.433594-103.507812 103.507812v304.984376c0 57.074218 46.433594 103.507812 103.507812 103.507812h163.664063c57.074219 0 103.507813-46.433594 103.507813-103.507812v-304.984376c0-57.074218-46.433594-103.507812-103.507813-103.507812zm73.507813 408.492188c0 40.53125-32.976563 73.507812-73.507813 73.507812h-163.664063c-40.53125 0-73.507812-32.976562-73.507812-73.507812v-304.984376c0-40.53125 32.976562-73.507812 73.507812-73.507812h163.664063c40.53125 0 73.507813 32.976562 73.507813 73.507812zm0 0"/><path d="m291.964844 241c-7.324219-52.296875-52.34375-92.675781-106.625-92.675781s-99.300782 40.378906-106.625 92.675781h-18.132813c-8.28125 0-15 6.714844-15 15s6.71875 15 15 15h18.132813c7.324218 52.296875 52.34375 92.675781 106.625 92.675781s99.300781-40.378906 106.625-92.675781h18.132812c8.285156 0 15-6.714844 15-15s-6.714844-15-15-15zm-106.625 92.675781c-37.699219 0-69.195313-27-76.207032-62.675781h152.414063c-7.011719 35.675781-38.507813 62.675781-76.207031 62.675781zm0-155.351562c37.699218 0 69.195312 27 76.207031 62.675781h-152.414063c7.011719-35.675781 38.507813-62.675781 76.207032-62.675781zm0 0"/></svg>